<svg width="172" height="50" viewBox="0 0 172 50" fill="none" xmlns="http://www.w3.org/2000/svg">
<path d="M83.1665 3.90653C84.8174 3.92443 86.4708 3.90909 88.1242 3.9142C88.1166 5.45585 88.1417 6.99494 88.1091 8.53659C86.4532 8.51358 84.7998 8.53147 83.1464 8.5238C83.1539 6.98471 83.1188 5.44562 83.1665 3.90653Z" fill="#215D63"/>
<path d="M59.4664 4.07613C61.3209 4.07358 63.1778 4.07358 65.0322 4.07358C68.4068 10.074 71.7538 16.0897 75.1385 22.0825C75.1561 16.0795 75.141 10.0765 75.146 4.07358C76.7944 4.07358 78.4453 4.07358 80.0936 4.07358C80.0936 12.6894 80.0936 21.3027 80.0936 29.916C78.3297 29.9236 76.5683 29.9057 74.8043 29.9262C71.3166 23.8235 67.8867 17.6825 64.4116 11.5696C64.4065 17.6851 64.4115 23.8005 64.409 29.916C62.7607 29.9185 61.1123 29.9185 59.4664 29.916C59.4639 21.3027 59.4639 12.6894 59.4664 4.07613Z" fill="#215D63"/>
<path d="M108.764 13.003C110.166 11.3796 112.259 10.5052 114.357 10.385C116.8 10.2521 119.428 10.6765 121.375 12.2897C122.883 13.6269 123.426 15.7105 123.644 17.6587C121.968 17.6612 120.292 17.6638 118.616 17.6587C118.4 16.6079 117.991 15.4395 116.976 14.941C115.553 14.266 113.609 14.5012 112.618 15.8256C111.681 17.0604 111.518 18.6864 111.465 20.1923C111.45 21.8592 111.528 23.6718 112.505 25.0831C113.45 26.4509 115.365 26.6657 116.81 26.1083C118.008 25.5944 118.41 24.1883 118.589 22.9943C120.255 22.9892 121.923 22.9892 123.594 22.9943C123.353 25.4206 122.079 27.7522 120.114 29.1635C118.232 30.4904 115.827 30.746 113.603 30.4904C111.734 30.291 109.847 29.5265 108.618 28.0335C106.869 25.9575 106.269 23.1298 106.329 20.4531C106.357 17.8069 106.97 15.01 108.764 13.003Z" fill="#215D63"/>
<path d="M127.384 11.7273C129.366 10.3979 131.864 10.2419 134.165 10.4234C135.791 10.5819 137.425 11.0242 138.822 11.9037C140.091 12.7576 140.658 14.3376 140.701 15.8332C140.779 19.7679 140.628 23.7051 140.787 27.6372C140.766 28.33 141.196 28.8823 141.764 29.2121C141.764 29.3885 141.769 29.7413 141.772 29.9151C139.985 29.9203 138.201 29.9151 136.414 29.9177C136.171 29.1967 136.037 28.4451 135.97 27.6858C134.547 29.1661 132.721 30.4086 130.625 30.4853C128.276 30.7077 125.605 29.6544 124.647 27.3278C123.851 25.2161 124.011 22.5648 125.524 20.8187C126.791 19.3716 128.735 18.891 130.542 18.597C132.037 18.2978 133.648 18.4001 135.04 17.7072C136.228 17.1295 135.997 15.1097 134.784 14.7032C133.588 14.2788 132.213 14.22 131.014 14.6649C130.065 15.0202 129.71 16.0787 129.509 16.9914C127.931 16.9965 126.351 16.9965 124.773 16.9939C124.906 14.9896 125.667 12.8676 127.384 11.7273ZM130.268 22.3373C129.087 22.9765 128.831 24.6153 129.376 25.7709C129.806 26.5941 130.798 26.929 131.67 26.8753C132.954 26.8114 134.319 26.2975 135.098 25.2084C135.96 23.8559 135.791 22.1686 135.806 20.6346C134.123 21.7007 132.007 21.4297 130.268 22.3373Z" fill="#215D63"/>
<path d="M150.669 11.1469C151.765 10.4439 153.099 10.3109 154.365 10.3697C154.37 12.0775 154.368 13.7879 154.368 15.4958C152.812 15.3526 151.049 15.3117 149.772 16.3778C148.601 17.357 148.45 19.0188 148.415 20.4556C148.395 23.6054 148.41 26.7577 148.408 29.9075C146.757 29.9279 145.108 29.9126 143.46 29.9151C143.465 23.544 143.445 17.1729 143.47 10.8018C145.03 10.812 146.588 10.7992 148.149 10.8095C148.156 11.8986 148.119 12.9903 148.169 14.0794C148.872 13.0056 149.548 11.827 150.669 11.1469Z" fill="#215D63"/>
<path d="M156.816 12.801C159.459 10.0271 163.854 9.66662 167.226 11.1622C169.314 12.1184 170.797 14.1305 171.468 16.319C172.023 18.0677 172.005 19.9289 171.998 21.7441C167.711 21.7467 163.427 21.7467 159.143 21.7441C159.233 23.0506 159.507 24.4669 160.492 25.3976C162.246 27.1642 165.766 26.8139 166.719 24.3289C168.4 24.2778 170.083 24.3187 171.764 24.3084C171.362 26.5762 169.714 28.4808 167.754 29.547C164.055 31.3826 159.17 30.7026 156.328 27.5886C154.622 25.6711 154.192 22.9585 154.202 20.4582C154.197 17.7226 154.843 14.7875 156.816 12.801ZM161.173 14.9052C159.962 15.6415 159.464 17.1039 159.256 18.4486C161.804 18.4512 164.354 18.4512 166.904 18.4486C166.799 17.4822 166.593 16.4698 165.947 15.713C164.821 14.3248 162.686 14.0512 161.173 14.9052Z" fill="#215D63"/>
<path d="M83.1438 10.8069C84.8047 10.8043 86.4631 10.8043 88.1241 10.8069C88.1241 17.1755 88.1241 23.5466 88.1241 29.9177C86.4631 29.9177 84.8022 29.9177 83.1438 29.9151C83.1438 23.5466 83.1413 17.1755 83.1438 10.8069Z" fill="#215D63"/>
<path d="M90.2451 10.8043C95.3209 10.8069 100.399 10.8043 105.477 10.8069C105.477 12.1926 105.482 13.5808 105.475 14.9665C102.299 18.579 99.1252 22.1941 95.9516 25.8117C99.2358 25.8169 102.52 25.8117 105.804 25.8143C105.807 27.1821 105.804 28.5499 105.804 29.9151C100.399 29.9177 94.9943 29.9177 89.5893 29.9177C89.5868 28.6215 89.5893 27.3253 89.5868 26.0291C92.7931 22.3066 96.0119 18.5944 99.2182 14.8719C96.228 14.8745 93.2353 14.8745 90.2427 14.8719C90.2427 13.5169 90.2401 12.1594 90.2451 10.8043Z" fill="#215D63"/>
<path d="M0.0034975 0C3.48115 1.52886 7.3131 1.87401 11.0445 2.24216C19.907 2.93245 28.8072 2.7586 37.6873 2.63333C41.0192 2.57708 44.0445 5.55044 44.1074 8.93797C44.135 16.9274 44.1099 24.9195 44.1199 32.9089C42.3861 32.8885 40.5242 32.6481 39.1296 31.5028C38.0893 30.6744 37.5466 29.3757 37.3405 28.0795C36.7676 24.5385 36.7123 20.9413 36.5766 17.3621C36.4837 15.0739 34.5564 13.0669 32.31 12.9135C30.4129 12.8368 28.5107 12.9033 26.6136 12.8803C28.2293 14.2634 29.8475 15.6849 31.1214 17.4106C32.212 18.85 32.4557 20.903 31.7396 22.5674C31.3074 23.6897 29.9455 23.8764 28.9127 23.8278C26.8347 23.59 24.9401 22.6108 23.0354 21.8004C18.1004 19.7448 13.1628 17.6944 8.22523 15.6389C5.8557 14.6444 4.08421 12.5812 2.91578 10.3109C1.26993 7.1151 0.506048 3.54349 0.0034975 0Z" fill="#03C888"/>
<path d="M0 17.0885C1.66093 17.1269 3.43242 17.3314 4.81192 18.3617C5.89241 19.1441 6.51557 20.4249 6.73921 21.7288C7.37242 25.3618 7.38499 29.0638 7.55585 32.7376C7.684 34.9926 9.60877 36.951 11.8225 37.0865C13.7121 37.1708 15.6042 37.0993 17.4963 37.1197C15.8731 35.7212 14.2398 34.2946 12.9633 32.5459C11.8979 31.104 11.6692 29.0638 12.3879 27.4147C12.805 26.3512 14.0765 26.1467 15.069 26.1646C17.24 26.3742 19.21 27.4122 21.1951 28.2508C26.1226 30.3088 31.0551 32.3465 35.9801 34.4071C38.2944 35.3991 40.0206 37.4214 41.1765 39.6405C42.8425 42.8465 43.6063 46.4386 44.1189 50C41.468 48.8163 38.5733 48.3842 35.7238 48.0288C25.9492 46.9755 16.1017 47.267 6.29445 47.3641C3.12084 47.3513 0.344247 44.626 0 41.4557V17.0885Z" fill="#03C888"/>
<path d="M67.6044 38.1909C67.9537 38.2114 68.3054 38.2344 68.6572 38.2548C68.617 39.413 68.6648 40.5686 68.617 41.7267C69.4739 40.2132 72.2731 40.1263 72.8184 41.9389C73.1098 43.7311 72.9013 45.5617 72.9616 47.3718C72.6073 47.3718 72.253 47.3718 71.8987 47.3718C71.8736 45.8071 71.9464 44.2373 71.866 42.6752C71.8384 41.8009 70.8685 41.3969 70.1272 41.5861C69.2477 41.6884 68.6849 42.5781 68.6673 43.4243C68.5994 44.7384 68.6597 46.0551 68.6396 47.3718C68.2828 47.3718 67.926 47.3718 67.5717 47.3718C67.5918 44.3115 67.5265 41.2512 67.6044 38.1909Z" fill="#215D63"/>
<path d="M124.812 39.0295C126.167 37.8074 128.333 37.6796 129.86 38.6332C130.675 39.1369 131.132 40.0445 131.315 40.97C130.921 40.9726 130.526 40.9726 130.134 40.97C129.772 39.0576 127.26 38.4875 125.848 39.5664C124.895 40.2797 124.538 41.5452 124.533 42.7008C124.531 43.8641 124.807 45.1552 125.729 45.9299C126.82 46.8272 128.667 46.8196 129.574 45.6563C129.981 45.1731 130.099 44.5314 130.222 43.928C130.609 43.9255 131.001 43.9255 131.393 43.9255C131.252 45.1347 130.737 46.3952 129.659 47.0318C127.76 48.1158 124.903 47.5865 123.918 45.4748C122.968 43.4244 123.129 40.6402 124.812 39.0295Z" fill="#215D63"/>
<path d="M59.5485 38.2216C61.9482 38.2165 64.3453 38.2216 66.745 38.219C66.745 38.4747 66.745 38.986 66.745 39.2417C65.7449 39.2391 64.7449 39.2366 63.7448 39.2417C63.7373 41.9568 63.7649 44.6694 63.7297 47.3845C63.3377 47.3769 62.9457 47.3718 62.5538 47.3666C62.5512 44.6592 62.5538 41.9492 62.5538 39.2417C61.5612 39.2391 60.5662 39.2366 59.5736 39.2468C59.5636 38.9042 59.5535 38.5642 59.5485 38.2216Z" fill="#215D63"/>
<path d="M84.0529 38.2267C84.465 38.2191 84.8796 38.2088 85.2942 38.1986C86.2139 40.8064 86.9928 43.4653 87.8874 46.0832C88.8824 43.5113 89.6312 40.837 90.5232 38.2216C90.9353 38.2216 91.3499 38.2191 91.7645 38.2216C90.6991 41.2742 89.6362 44.3268 88.5608 47.3769C88.1085 47.3718 87.6587 47.3692 87.2064 47.3692C86.1611 44.3192 85.1057 41.2742 84.0529 38.2267Z" fill="#215D63"/>
<path d="M117.364 38.219C117.719 38.219 118.073 38.219 118.43 38.2216C118.43 41.2716 118.43 44.3217 118.43 47.3718C118.073 47.3718 117.719 47.3718 117.367 47.3743C117.364 44.3217 117.367 41.2716 117.364 38.219Z" fill="#215D63"/>
<path d="M132.785 47.3845C132.748 44.3294 132.775 41.2742 132.77 38.219C133.034 38.219 133.564 38.219 133.828 38.219C133.833 41.2691 133.831 44.3191 133.828 47.3692C133.567 47.3743 133.044 47.382 132.785 47.3845Z" fill="#215D63"/>
<path d="M99.9687 38.7585C100.32 38.7585 100.677 38.7585 101.034 38.7585C101.034 39.4232 101.034 40.0854 101.042 40.7501C101.471 40.7501 101.903 40.7475 102.336 40.7501C102.336 40.9879 102.333 41.4634 102.333 41.7037C101.898 41.7037 101.466 41.7037 101.037 41.7037C101.074 43.2121 100.949 44.7333 101.102 46.2341C101.439 46.5127 101.929 46.367 102.336 46.4335C102.333 46.6687 102.333 47.1417 102.333 47.3794C101.552 47.3232 100.222 47.5891 100.024 46.523C99.8908 44.9225 100.004 43.3118 99.9662 41.7063C99.6219 41.7037 99.2777 41.7012 98.9359 41.6986C98.9384 41.4634 98.946 40.9879 98.951 40.7526C99.2877 40.7501 99.6244 40.7475 99.9636 40.7475C99.9662 40.0854 99.9662 39.4206 99.9687 38.7585Z" fill="#215D63"/>
<path d="M75.1854 41.4787C76.2533 40.3385 78.2962 40.272 79.3364 41.4864C80.0476 42.2611 80.2159 43.3579 80.2586 44.3754C78.6128 44.3907 76.9669 44.3728 75.3211 44.3856C75.404 44.9506 75.4668 45.5821 75.909 45.9963C76.7383 46.8477 78.5223 46.8016 78.9771 45.5642C79.1279 45.0325 79.7737 45.3674 80.1606 45.2804C79.9496 45.9861 79.6355 46.7275 78.9646 47.0957C77.6102 47.8754 75.5749 47.5737 74.7607 46.1318C73.9868 44.6975 74.022 42.6931 75.1854 41.4787ZM75.3361 43.4192C76.5975 43.4295 77.8589 43.4269 79.1203 43.4192C79.0048 42.4221 78.2082 41.4685 77.1529 41.5529C76.1528 41.5427 75.4568 42.4809 75.3361 43.4192Z" fill="#215D63"/>
<path d="M92.6163 40.7526C92.9706 40.7501 93.3249 40.745 93.6817 40.7424C93.6868 42.9513 93.6818 45.1603 93.6843 47.3692C93.3275 47.3718 92.9732 47.3718 92.6189 47.3718C92.6163 45.1654 92.6214 42.959 92.6163 40.7526Z" fill="#215D63"/>
<path d="M96.3151 42.1742C96.7875 41.2077 97.7097 40.5021 98.8128 40.5814C98.8229 40.9546 98.8304 41.3305 98.8379 41.7088C97.9434 41.7344 96.8956 42.054 96.5991 43.0204C96.1845 44.4265 96.4634 45.9247 96.3805 47.3692C96.1166 47.3718 95.5889 47.3769 95.3251 47.3794C95.3075 45.168 95.3176 42.9565 95.3201 40.745C95.5713 40.745 96.0714 40.7501 96.3202 40.7501C96.3202 41.2256 96.3202 41.6986 96.3151 42.1742Z" fill="#215D63"/>
<path d="M103.537 40.7373C103.889 40.7475 104.243 40.7527 104.597 40.7654C104.602 42.3173 104.552 43.8717 104.617 45.4211C104.627 46.2775 105.567 46.7198 106.306 46.5383C107.185 46.4565 107.783 45.6 107.813 44.7435C107.896 43.4115 107.821 42.077 107.849 40.745C108.203 40.745 108.557 40.7475 108.914 40.7527C108.907 42.959 108.914 45.1654 108.912 47.3718C108.66 47.3718 108.158 47.3718 107.909 47.3718C107.906 47.0138 107.909 46.6585 107.917 46.3005C107.231 47.5303 105.55 47.8396 104.384 47.1723C103.73 46.7863 103.554 45.9707 103.544 45.26C103.494 43.7516 103.519 42.2432 103.537 40.7373Z" fill="#215D63"/>
<path d="M110.402 42.7903C110.457 41.7293 111.256 40.791 112.314 40.6887C113.409 40.5277 114.997 40.4612 115.513 41.7037C115.804 43.2633 115.495 44.8714 115.686 46.4411C115.849 46.4795 116.171 46.5536 116.334 46.5894C116.307 46.8707 116.276 47.1519 116.246 47.4357C115.54 47.6325 114.58 47.474 114.608 46.5281C113.756 47.5047 112.276 47.7604 111.118 47.249C109.836 46.7326 109.874 44.5544 111.128 44.0251C112.083 43.5394 113.188 43.6135 114.183 43.2684C114.827 42.982 114.621 41.9466 114.028 41.7191C113.063 41.31 111.573 41.5682 111.432 42.8286C111.176 42.821 110.66 42.8005 110.402 42.7903ZM111.779 44.7026C111.103 45.0555 111.176 46.2264 111.914 46.4514C112.703 46.7147 113.686 46.5357 114.249 45.8864C114.673 45.3622 114.53 44.6311 114.585 44.0047C113.671 44.3345 112.64 44.2322 111.779 44.7026Z" fill="#215D63"/>
<path d="M135.564 40.7501C135.916 40.7475 136.27 40.745 136.63 40.745C136.632 42.9488 136.617 45.1552 136.637 47.359C136.278 47.3666 135.921 47.3718 135.567 47.3769C135.562 45.1679 135.569 42.959 135.564 40.7501Z" fill="#215D63"/>
<path d="M138.301 40.745C138.63 40.7475 138.959 40.7501 139.293 40.7527C139.306 41.085 139.318 41.4174 139.333 41.7497C140.205 40.1902 143.095 40.1186 143.567 42.0259C143.811 43.7925 143.63 45.5898 143.688 47.3692C143.331 47.3718 142.977 47.3718 142.625 47.3718C142.59 45.7611 142.691 44.1453 142.575 42.5397C142.427 41.5861 141.243 41.3586 140.489 41.6909C139.761 41.9492 139.411 42.775 139.384 43.5113C139.333 44.7972 139.381 46.0858 139.364 47.3718C139.1 47.3718 138.57 47.3743 138.303 47.3743C138.296 45.1654 138.303 42.9539 138.301 40.745Z" fill="#215D63"/>
<path d="M148.505 41.6526C149.877 39.8578 153.423 40.3768 153.659 42.8619C153.289 42.8644 152.92 42.867 152.556 42.867C152.269 41.2972 149.975 41.1132 149.269 42.4375C148.721 43.5394 148.736 45.0222 149.493 46.027C150.478 47.1136 152.493 46.4693 152.603 44.9558C152.963 44.9532 153.324 44.9506 153.689 44.9532C153.518 45.8046 153.159 46.6994 152.367 47.134C150.95 47.901 148.809 47.5175 148.118 45.9196C147.548 44.5646 147.623 42.8517 148.505 41.6526Z" fill="#215D63"/>
<path d="M145.369 40.7399C145.728 40.7501 146.09 40.7604 146.455 40.7731C146.412 42.9718 146.445 45.1705 146.437 47.3718C146.08 47.3718 145.723 47.3718 145.372 47.3718C145.369 45.1603 145.374 42.9514 145.369 40.7399Z" fill="#215D63"/>
</svg>
