<svg width="23" height="17" viewBox="0 0 23 17" fill="none" xmlns="http://www.w3.org/2000/svg">
<path d="M11.6058 5.39366C10.5393 5.39366 8.88843 4.67468 7.14988 4.70067C4.85616 4.718 2.75237 5.48895 1.56899 6.71034C-0.812383 9.16179 0.955385 12.7827 3.27832 14.775C4.41787 15.7452 5.76196 16.8366 7.54434 16.802C9.25367 16.7587 9.89649 16.1437 11.9711 16.1437C14.031 16.1437 14.6154 16.802 16.427 16.776C18.2678 16.7587 19.4366 15.7885 20.5615 14.8096C21.8618 13.6835 22.4024 12.5921 22.4316 12.5314C22.3878 12.5228 18.8522 11.7172 18.8084 9.29172C18.7792 7.26473 21.5988 6.29455 21.7303 6.25123C20.1233 4.85659 17.6542 4.70067 16.7923 4.66602C14.5424 4.56207 12.6577 5.39366 11.6058 5.39366ZM15.4043 3.34934C16.354 2.67368 16.9822 1.72948 16.8069 0.793945C15.4482 0.828595 13.8119 1.33101 12.833 2.00668C11.9565 2.60438 11.1968 3.5659 11.4013 4.48411C12.9061 4.55341 14.4547 4.02501 15.4043 3.34934Z" fill="#F8F8F6"/>
</svg>
