<svg width="23" height="16" viewBox="0 0 23 16" fill="none" xmlns="http://www.w3.org/2000/svg">
<path d="M0.755164 0.774414L13.2515 8.18592L0.756391 15.5974C0.534199 15.542 0.344585 15.4489 0.211391 15.3298C0.0781974 15.2107 0.00736977 15.0709 0.00781458 14.928V1.44382C0.00790864 1.30108 0.0788126 1.1615 0.211699 1.04248C0.344585 0.92345 0.533584 0.830227 0.755164 0.774414ZM14.1191 8.70034L16.944 10.3753L3.52244 14.9833L14.1191 8.70034ZM18.0448 6.37342L21.4895 7.55653C21.6755 7.62049 21.8298 7.7123 21.9371 7.82275C22.0444 7.93321 22.1009 8.05845 22.1009 8.18592C22.1009 8.31339 22.0444 8.43862 21.9371 8.54908C21.8298 8.65954 21.6755 8.75134 21.4895 8.81531L18.0436 9.99841L14.9867 8.18592L18.0448 6.37342ZM3.52244 1.38852L16.9453 5.99579L14.1191 7.67149L3.52244 1.38852Z" fill="#F8F8F6"/>
</svg>
