<svg width="247" height="60" viewBox="0 0 247 60" fill="none" xmlns="http://www.w3.org/2000/svg">
<path d="M0 30C0 13.4315 13.4315 0 30 0H217C233.569 0 247 13.4315 247 30C247 46.5685 233.569 60 217 60H30C13.4315 60 0 46.5685 0 30Z" fill="white"/>
<path d="M46.472 30.504C45.344 31.824 43.952 32.496 42.248 32.496C40.448 32.496 38.984 31.92 37.832 30.744C36.68 29.568 36.104 28.128 36.104 26.472C36.104 24.504 36.8 22.92 38.216 21.744C39.632 20.544 41.264 19.944 43.112 19.944C45.704 19.944 47.696 21.048 48.872 22.584C49.952 23.976 50.48 26.136 50.48 29.088C50.48 32.16 49.784 34.632 48.368 36.48C46.976 38.328 44.936 39.24 42.248 39.24C40.208 39.24 38.384 38.616 36.776 37.368L38.792 34.368C39.896 35.232 41.048 35.664 42.248 35.664C43.616 35.664 44.648 35.184 45.344 34.2C46.04 33.216 46.4 31.992 46.472 30.504ZM46.376 26.376C46.376 25.584 46.04 24.888 45.392 24.312C44.744 23.736 44 23.448 43.16 23.448C42.296 23.448 41.552 23.736 40.928 24.312C40.328 24.864 40.016 25.56 40.016 26.352C40.016 28.08 41.312 29.232 43.16 29.232C44.024 29.232 44.768 28.968 45.416 28.464C46.064 27.936 46.376 27.24 46.376 26.376ZM61.7435 23.736H52.4315V20.208H66.2075V23.544L57.9035 39H53.5355L61.7435 23.736ZM82.0916 33.696C82.0916 35.376 81.4196 36.72 80.0756 37.728C78.7316 38.736 77.0516 39.24 75.0596 39.24C73.0676 39.24 71.4116 38.736 70.0676 37.728C68.7236 36.696 68.0516 35.376 68.0516 33.768C68.0516 31.728 69.1556 30.216 71.3396 29.256V29.232C69.5876 28.536 68.4356 26.952 68.4356 25.056C68.4356 23.592 69.0356 22.368 70.2596 21.384C71.4836 20.4 73.0916 19.92 75.0836 19.92C77.0756 19.92 78.6596 20.4 79.8836 21.384C81.1076 22.368 81.7076 23.592 81.7076 25.056C81.7076 26.952 80.5556 28.536 78.8036 29.232V29.256C80.9876 30.192 82.0916 31.656 82.0916 33.696ZM77.8196 25.536C77.8196 24.192 76.7156 23.184 75.0596 23.184C73.4516 23.184 72.3236 24.192 72.3236 25.512C72.3236 26.928 73.6196 27.864 75.0596 27.864C76.5236 27.864 77.8196 26.952 77.8196 25.536ZM78.1796 33.456C78.1796 32.712 77.8676 32.16 77.2436 31.752C76.6196 31.344 75.8996 31.128 75.0836 31.128C73.4276 31.128 71.9636 31.992 71.9636 33.456C71.9636 34.872 73.2116 35.976 75.0356 35.976C76.9556 35.976 78.1796 34.896 78.1796 33.456ZM92.7607 29.352V33.048H84.8407V29.352H92.7607ZM105.769 30.504C104.641 31.824 103.249 32.496 101.545 32.496C99.7449 32.496 98.2809 31.92 97.1289 30.744C95.9769 29.568 95.4009 28.128 95.4009 26.472C95.4009 24.504 96.0969 22.92 97.5129 21.744C98.9289 20.544 100.561 19.944 102.409 19.944C105.001 19.944 106.993 21.048 108.169 22.584C109.249 23.976 109.777 26.136 109.777 29.088C109.777 32.16 109.081 34.632 107.665 36.48C106.273 38.328 104.233 39.24 101.545 39.24C99.5049 39.24 97.6809 38.616 96.0729 37.368L98.0889 34.368C99.1929 35.232 100.345 35.664 101.545 35.664C102.913 35.664 103.945 35.184 104.641 34.2C105.337 33.216 105.697 31.992 105.769 30.504ZM105.673 26.376C105.673 25.584 105.337 24.888 104.689 24.312C104.041 23.736 103.297 23.448 102.457 23.448C101.593 23.448 100.849 23.736 100.225 24.312C99.6249 24.864 99.3129 25.56 99.3129 26.352C99.3129 28.08 100.609 29.232 102.457 29.232C103.321 29.232 104.065 28.968 104.713 28.464C105.361 27.936 105.673 27.24 105.673 26.376ZM125.696 32.712C125.696 34.704 125.024 36.288 123.704 37.464C122.384 38.64 120.704 39.216 118.688 39.216C115.448 39.216 113.192 37.992 111.92 35.544L115.232 33.576C115.952 34.92 117.128 35.592 118.784 35.592C120.536 35.592 121.784 34.536 121.784 32.808C121.784 31.2 120.584 30.12 118.64 30.12C117.704 30.12 116.84 30.48 116.072 31.224L112.424 29.736L113.792 20.208H124.856V23.736H116.888L116.288 27.96C117.32 27.12 118.448 26.712 119.672 26.712C121.4 26.712 122.84 27.24 123.968 28.296C125.12 29.328 125.696 30.816 125.696 32.712ZM141.469 33.6C141.469 35.232 140.821 36.6 139.525 37.68C138.229 38.76 136.621 39.288 134.677 39.288C131.389 39.288 128.773 37.896 127.645 35.28L131.053 33.528C131.701 34.896 133.069 35.688 134.773 35.688C136.429 35.688 137.533 34.824 137.533 33.504C137.533 32.088 136.501 31.296 134.773 31.296H132.781V27.696H134.557C136.213 27.696 137.197 26.832 137.197 25.584C137.197 24.408 136.189 23.544 134.485 23.544C133.069 23.544 132.061 24.24 131.413 25.632L127.933 23.976C128.989 21.384 131.485 19.92 134.629 19.92C136.549 19.92 138.109 20.424 139.309 21.408C140.509 22.392 141.109 23.712 141.109 25.32C141.109 27.048 140.245 28.368 138.541 29.28V29.304C140.629 30.168 141.469 31.512 141.469 33.6ZM152.128 29.352V33.048H144.208V29.352H152.128ZM162.431 23.736H153.119V20.208H166.895V23.544L158.591 39H154.223L162.431 23.736ZM182.203 33.6C182.203 35.232 181.555 36.6 180.259 37.68C178.963 38.76 177.355 39.288 175.411 39.288C172.123 39.288 169.507 37.896 168.379 35.28L171.787 33.528C172.435 34.896 173.803 35.688 175.507 35.688C177.163 35.688 178.267 34.824 178.267 33.504C178.267 32.088 177.235 31.296 175.507 31.296H173.515V27.696H175.291C176.947 27.696 177.931 26.832 177.931 25.584C177.931 24.408 176.923 23.544 175.219 23.544C173.803 23.544 172.795 24.24 172.147 25.632L168.667 23.976C169.723 21.384 172.219 19.92 175.363 19.92C177.283 19.92 178.843 20.424 180.043 21.408C181.243 22.392 181.843 23.712 181.843 25.32C181.843 27.048 180.979 28.368 179.275 29.28V29.304C181.363 30.168 182.203 31.512 182.203 33.6ZM189.166 24.84L185.206 27.096L183.478 23.952L189.862 20.208H193.054V39H189.166V24.84ZM209.93 33.6C209.93 35.232 209.282 36.6 207.986 37.68C206.69 38.76 205.082 39.288 203.138 39.288C199.85 39.288 197.234 37.896 196.106 35.28L199.514 33.528C200.162 34.896 201.53 35.688 203.234 35.688C204.89 35.688 205.994 34.824 205.994 33.504C205.994 32.088 204.962 31.296 203.234 31.296H201.242V27.696H203.018C204.674 27.696 205.658 26.832 205.658 25.584C205.658 24.408 204.65 23.544 202.946 23.544C201.53 23.544 200.522 24.24 199.874 25.632L196.394 23.976C197.45 21.384 199.946 19.92 203.09 19.92C205.01 19.92 206.57 20.424 207.77 21.408C208.97 22.392 209.57 23.712 209.57 25.32C209.57 27.048 208.706 28.368 207.002 29.28V29.304C209.09 30.168 209.93 31.512 209.93 33.6Z" fill="#215D63"/>
</svg>
